<?xml version="1.0" standalone="no"?>
<!DOCTYPE svg PUBLIC "-//W3C//DTD SVG 1.1//EN" "http://www.w3.org/Graphics/SVG/1.1/DTD/svg11.dtd" >
<svg xmlns="http://www.w3.org/2000/svg" xmlns:xlink="http://www.w3.org/1999/xlink" version="1.1">
<metadata>
Created by FontForge 20170731 at Sun Oct  8 13:35:53 2017
 By Aleksey,,,
Copyright (c) 2017 by deFharo. All rights reserved.
</metadata>
<defs>
<font id="FlamanteSerif" horiz-adv-x="333" >
  <font-face 
    font-family="Flamante Serif"
    font-weight="500"
    font-stretch="normal"
    units-per-em="1000"
    panose-1="2 11 5 3 4 0 0 2 0 4"
    ascent="713"
    descent="-287"
    x-height="504"
    cap-height="713"
    bbox="-177 -286 1122 938"
    underline-thickness="92"
    underline-position="-194"
    unicode-range="U+000D-F8FF"
  />
<missing-glyph horiz-adv-x="994" 
d="M632 315h-126v117h126v-117zM489 315h-126v117h126v-117zM648 468h137v-104h-137v104zM648 587h137v-104h-137v104zM648 713h137v-111h-137v111zM785 349v-104h-137v104h137zM785 230v-104h-137v104h137zM785 111v-111h-137v111h137zM347 245h-138v104h138v-104zM347 126
h-138v104h138v-104zM347 0h-138v111h138v-111zM209 364v104h138v-104h-138zM209 483v104h138v-104h-138zM209 602v111h138v-111h-138zM55 602v111h138v-111h-138zM55 0v111h138v-111h-138zM801 602v111h138v-111h-138zM801 0v111h138v-111h-138zM632 0h-126v111h126v-111z
M489 0h-126v111h126v-111zM632 602h-126v111h126v-111zM489 602h-126v111h126v-111z" />
    <glyph glyph-name="bitcoin" unicode="b&#x23;" horiz-adv-x="739" 
d="M55 713h119v88h101v-88h72v88h101v-88h8q37 0 69.5 -14t57 -38t38.5 -56.5t14 -69.5q0 -28 -8.5 -53.5t-22.5 -47.5q47 -32 75 -83.5t28 -112.5q0 -49 -19 -92.5t-51 -75.5t-75.5 -51t-92.5 -19h-21v-90h-101v90h-72v-90h-101v90h-119v102h76v509h-76v102zM275 364v-245
h179q24 0 45.5 10t37.5 26.5t25.5 39t9.5 47.5q0 24 -9.5 46.5t-25.5 39t-37.5 26.5t-45.5 10h-179zM275 470h166q25 0 42.5 20t17.5 44q0 25 -17.5 43t-42.5 18h-166v-125z" />
    <glyph glyph-name="apple" unicode="a&#x23;" horiz-adv-x="994" 
d="M632 315h-126v117h126v-117zM489 315h-126v117h126v-117zM648 468h137v-104h-137v104zM648 587h137v-104h-137v104zM648 713h137v-111h-137v111zM785 349v-104h-137v104h137zM785 230v-104h-137v104h137zM785 111v-111h-137v111h137zM347 245h-138v104h138v-104zM347 126
h-138v104h138v-104zM347 0h-138v111h138v-111zM209 364v104h138v-104h-138zM209 483v104h138v-104h-138zM209 602v111h138v-111h-138zM55 602v111h138v-111h-138zM55 0v111h138v-111h-138zM801 602v111h138v-111h-138zM801 0v111h138v-111h-138zM632 0h-126v111h126v-111z
M489 0h-126v111h126v-111zM632 602h-126v111h126v-111zM489 602h-126v111h126v-111z" />
    <glyph glyph-name=".notdef" horiz-adv-x="994" 
d="M632 315h-126v117h126v-117zM489 315h-126v117h126v-117zM648 468h137v-104h-137v104zM648 587h137v-104h-137v104zM648 713h137v-111h-137v111zM785 349v-104h-137v104h137zM785 230v-104h-137v104h137zM785 111v-111h-137v111h137zM347 245h-138v104h138v-104zM347 126
h-138v104h138v-104zM347 0h-138v111h138v-111zM209 364v104h138v-104h-138zM209 483v104h138v-104h-138zM209 602v111h138v-111h-138zM55 602v111h138v-111h-138zM55 0v111h138v-111h-138zM801 602v111h138v-111h-138zM801 0v111h138v-111h-138zM632 0h-126v111h126v-111z
M489 0h-126v111h126v-111zM632 602h-126v111h126v-111zM489 602h-126v111h126v-111z" />
    <glyph glyph-name=".null" horiz-adv-x="0" 
 />
    <glyph glyph-name="nonmarkingreturn" unicode="&#xd;" horiz-adv-x="278" 
 />
    <glyph glyph-name="NULL" horiz-adv-x="0" 
 />
    <glyph glyph-name="NULL" horiz-adv-x="0" 
 />
    <glyph glyph-name="space" unicode=" " horiz-adv-x="290" 
 />
    <glyph glyph-name="exclam" unicode="!" 
d="M204 252h-74l-49 461h171zM85 160h162v-160h-162v160z" />
    <glyph glyph-name="quotedbl" unicode="&#x22;" horiz-adv-x="474" 
d="M98 713h102v-271h-102v271zM278 713h102v-271h-102v271z" />
    <glyph glyph-name="numbersign" unicode="#" horiz-adv-x="556" 
d="M239 410l-19 -121h97l19 121h-97zM485 199h-85l-30 -199h-94l30 199h-97l-30 -199h-94l30 199h-109l30 90h90l19 121h-110l30 94h91l31 210h94l-31 -210h97l31 210h94l-31 -210h103l-30 -94h-84l-19 -121h104z" />
    <glyph glyph-name="dollar" unicode="$" horiz-adv-x="667" 
d="M176 267v-74q8 -42 45 -67t97 -25q69 0 108.5 26t39.5 82q0 25 -17 42.5t-45.5 30.5t-64.5 24t-73.5 23.5t-73 29t-64 40t-45.5 56.5t-17 79q0 38 15.5 71t44 58.5t69 42t91.5 21.5v103h89v-102q72 -8 127 -38.5t86 -78.5v-128h-122v82q-29 28 -62 40.5t-71 12.5
q-57 0 -90.5 -21.5t-33.5 -62.5q0 -31 29.5 -50t73.5 -34.5t95.5 -31.5t95.5 -42t73.5 -66t29.5 -102q0 -88 -60 -148t-171 -73v-106h-89v103q-100 8 -156 56t-76 119v108h122z" />
    <glyph glyph-name="percent" unicode="%" horiz-adv-x="889" 
d="M600 177q0 -18 6.5 -34.5t17 -29t25 -20t30.5 -7.5t30.5 7.5t25 20t17 29t6.5 34.5t-6.5 34.5t-17 29t-25 20t-30.5 7.5t-30.5 -7.5t-25 -20t-17 -29t-6.5 -34.5zM497 177q0 40 14.5 75.5t39 61.5t57.5 41.5t71 15.5q37 0 70 -15.5t58 -42t39.5 -61.5t14.5 -75
t-14.5 -75.5t-39.5 -61.5t-58 -41.5t-70 -15.5q-38 0 -71 15t-57.5 41.5t-39 61.5t-14.5 76zM131 536q0 -18 6.5 -34.5t17 -29t25 -20t30.5 -7.5t30.5 7.5t25 20t17 29t6.5 34.5t-6.5 34.5t-17 29t-25 20t-30.5 7.5t-30.5 -7.5t-25 -20t-17 -29t-6.5 -34.5zM28 536
q0 40 14.5 75.5t39 61.5t57.5 41.5t71 15.5q37 0 70 -15.5t58 -42t39.5 -61.5t14.5 -75t-14.5 -75.5t-39.5 -61.5t-58 -41.5t-70 -15.5q-38 0 -71 15t-57.5 41.5t-39 61.5t-14.5 76zM273 -16h-92l428 729h91z" />
    <glyph glyph-name="ampersand" unicode="&#x26;" horiz-adv-x="722" 
d="M550 -18l-63 79q-23 -19 -44 -34t-45 -25t-52 -15t-64 -5q-55 0 -98 17.5t-72.5 46.5t-45 66.5t-15.5 78.5q0 31 9.5 62.5t29 60.5t50 54.5t71.5 44.5q-23 26 -44 64.5t-21 85.5q0 37 14 67t39.5 52t60.5 34t77 12q30 0 61 -10t56.5 -30t42 -51.5t16.5 -74.5
q0 -38 -14 -67.5t-33.5 -51.5t-39 -36t-30.5 -20l104 -134q14 21 25 46t23 71h148v-110h-60q-11 -28 -25.5 -53.5t-31.5 -51.5l112 -139zM280 319q-41 -25 -66 -56.5t-25 -65.5q0 -19 8 -36.5t23 -30.5t36.5 -21t47.5 -8q35 0 63 15t46 32zM392 559q0 30 -17 44.5t-43 14.5
q-23 0 -40.5 -14.5t-17.5 -43.5q0 -18 10.5 -39.5t41.5 -48.5q30 17 48 38t18 49z" />
    <glyph glyph-name="quotesingle" unicode="'" horiz-adv-x="238" 
d="M70 713h102v-271h-102v271z" />
    <glyph glyph-name="parenleft" unicode="(" 
d="M299 713q-30 -46 -54 -95t-41 -104t-26 -117.5t-9 -135.5q0 -74 10 -136t27.5 -116.5t41.5 -102.5t53 -94h-108q-77 89 -117.5 199t-40.5 250q0 138 39 249.5t117 202.5h108z" />
    <glyph glyph-name="parenright" unicode=")" 
d="M138 713q78 -91 117 -202.5t39 -249.5q0 -140 -40.5 -250t-117.5 -199h-108q29 46 53 94t41.5 102.5t27.5 116.5t10 136q0 73 -9 135.5t-26 117.5t-41 104t-54 95h108z" />
    <glyph glyph-name="asterisk" unicode="*" horiz-adv-x="433" 
d="M369 708l27 -67l-103 -34l103 -35l-28 -67l-98 48l49 -98l-67 -27l-34 103l-35 -103l-67 28l48 98l-97 -50l-28 67l103 35l-103 35l28 67l98 -48l-50 97l67 28l35 -103l35 103l67 -28l-48 -98z" />
    <glyph glyph-name="plus" unicode="+" horiz-adv-x="584" 
d="M353 197v-197h-122v197h-191v110h191v197h122v-197h191v-110h-191z" />
    <glyph glyph-name="comma" unicode="," horiz-adv-x="278" 
d="M203 20q0 -46 -11.5 -78.5t-31.5 -54.5t-47.5 -35t-59.5 -20v61q16 5 29.5 10t23 16t15.5 30t8 51h-88v160h162v-140z" />
    <glyph glyph-name="hyphen" unicode="-" horiz-adv-x="361" 
d="M25 308h308v-112h-308v112z" />
    <glyph glyph-name="period" unicode="." horiz-adv-x="278" 
d="M62 160h162v-160h-162v160z" />
    <glyph glyph-name="slash" unicode="/" horiz-adv-x="393" 
d="M115 -129h-117l276 926h117z" />
    <glyph glyph-name="zero" unicode="0" horiz-adv-x="994" 
d="M632 315h-126v117h126v-117zM489 315h-126v117h126v-117zM648 468h137v-104h-137v104zM648 587h137v-104h-137v104zM648 713h137v-111h-137v111zM785 349v-104h-137v104h137zM785 230v-104h-137v104h137zM785 111v-111h-137v111h137zM347 245h-138v104h138v-104zM347 126
h-138v104h138v-104zM347 0h-138v111h138v-111zM209 364v104h138v-104h-138zM209 483v104h138v-104h-138zM209 602v111h138v-111h-138zM55 602v111h138v-111h-138zM55 0v111h138v-111h-138zM801 602v111h138v-111h-138zM801 0v111h138v-111h-138zM632 0h-126v111h126v-111z
M489 0h-126v111h126v-111zM632 602h-126v111h126v-111zM489 602h-126v111h126v-111z" />
    <glyph glyph-name="one" unicode="1" horiz-adv-x="994" 
d="M632 315h-126v117h126v-117zM489 315h-126v117h126v-117zM648 468h137v-104h-137v104zM648 587h137v-104h-137v104zM648 713h137v-111h-137v111zM785 349v-104h-137v104h137zM785 230v-104h-137v104h137zM785 111v-111h-137v111h137zM347 245h-138v104h138v-104zM347 126
h-138v104h138v-104zM347 0h-138v111h138v-111zM209 364v104h138v-104h-138zM209 483v104h138v-104h-138zM209 602v111h138v-111h-138zM55 602v111h138v-111h-138zM55 0v111h138v-111h-138zM801 602v111h138v-111h-138zM801 0v111h138v-111h-138zM632 0h-126v111h126v-111z
M489 0h-126v111h126v-111zM632 602h-126v111h126v-111zM489 602h-126v111h126v-111z" />
    <glyph glyph-name="two" unicode="2" horiz-adv-x="994" 
d="M632 315h-126v117h126v-117zM489 315h-126v117h126v-117zM648 468h137v-104h-137v104zM648 587h137v-104h-137v104zM648 713h137v-111h-137v111zM785 349v-104h-137v104h137zM785 230v-104h-137v104h137zM785 111v-111h-137v111h137zM347 245h-138v104h138v-104zM347 126
h-138v104h138v-104zM347 0h-138v111h138v-111zM209 364v104h138v-104h-138zM209 483v104h138v-104h-138zM209 602v111h138v-111h-138zM55 602v111h138v-111h-138zM55 0v111h138v-111h-138zM801 602v111h138v-111h-138zM801 0v111h138v-111h-138zM632 0h-126v111h126v-111z
M489 0h-126v111h126v-111zM632 602h-126v111h126v-111zM489 602h-126v111h126v-111z" />
    <glyph glyph-name="three" unicode="3" horiz-adv-x="994" 
d="M632 315h-126v117h126v-117zM489 315h-126v117h126v-117zM648 468h137v-104h-137v104zM648 587h137v-104h-137v104zM648 713h137v-111h-137v111zM785 349v-104h-137v104h137zM785 230v-104h-137v104h137zM785 111v-111h-137v111h137zM347 245h-138v104h138v-104zM347 126
h-138v104h138v-104zM347 0h-138v111h138v-111zM209 364v104h138v-104h-138zM209 483v104h138v-104h-138zM209 602v111h138v-111h-138zM55 602v111h138v-111h-138zM55 0v111h138v-111h-138zM801 602v111h138v-111h-138zM801 0v111h138v-111h-138zM632 0h-126v111h126v-111z
M489 0h-126v111h126v-111zM632 602h-126v111h126v-111zM489 602h-126v111h126v-111z" />
    <glyph glyph-name="four" unicode="4" horiz-adv-x="994" 
d="M632 315h-126v117h126v-117zM489 315h-126v117h126v-117zM648 468h137v-104h-137v104zM648 587h137v-104h-137v104zM648 713h137v-111h-137v111zM785 349v-104h-137v104h137zM785 230v-104h-137v104h137zM785 111v-111h-137v111h137zM347 245h-138v104h138v-104zM347 126
h-138v104h138v-104zM347 0h-138v111h138v-111zM209 364v104h138v-104h-138zM209 483v104h138v-104h-138zM209 602v111h138v-111h-138zM55 602v111h138v-111h-138zM55 0v111h138v-111h-138zM801 602v111h138v-111h-138zM801 0v111h138v-111h-138zM632 0h-126v111h126v-111z
M489 0h-126v111h126v-111zM632 602h-126v111h126v-111zM489 602h-126v111h126v-111z" />
    <glyph glyph-name="five" unicode="5" horiz-adv-x="994" 
d="M632 315h-126v117h126v-117zM489 315h-126v117h126v-117zM648 468h137v-104h-137v104zM648 587h137v-104h-137v104zM648 713h137v-111h-137v111zM785 349v-104h-137v104h137zM785 230v-104h-137v104h137zM785 111v-111h-137v111h137zM347 245h-138v104h138v-104zM347 126
h-138v104h138v-104zM347 0h-138v111h138v-111zM209 364v104h138v-104h-138zM209 483v104h138v-104h-138zM209 602v111h138v-111h-138zM55 602v111h138v-111h-138zM55 0v111h138v-111h-138zM801 602v111h138v-111h-138zM801 0v111h138v-111h-138zM632 0h-126v111h126v-111z
M489 0h-126v111h126v-111zM632 602h-126v111h126v-111zM489 602h-126v111h126v-111z" />
    <glyph glyph-name="six" unicode="6" horiz-adv-x="994" 
d="M632 315h-126v117h126v-117zM489 315h-126v117h126v-117zM648 468h137v-104h-137v104zM648 587h137v-104h-137v104zM648 713h137v-111h-137v111zM785 349v-104h-137v104h137zM785 230v-104h-137v104h137zM785 111v-111h-137v111h137zM347 245h-138v104h138v-104zM347 126
h-138v104h138v-104zM347 0h-138v111h138v-111zM209 364v104h138v-104h-138zM209 483v104h138v-104h-138zM209 602v111h138v-111h-138zM55 602v111h138v-111h-138zM55 0v111h138v-111h-138zM801 602v111h138v-111h-138zM801 0v111h138v-111h-138zM632 0h-126v111h126v-111z
M489 0h-126v111h126v-111zM632 602h-126v111h126v-111zM489 602h-126v111h126v-111z" />
    <glyph glyph-name="seven" unicode="7" horiz-adv-x="994" 
d="M632 315h-126v117h126v-117zM489 315h-126v117h126v-117zM648 468h137v-104h-137v104zM648 587h137v-104h-137v104zM648 713h137v-111h-137v111zM785 349v-104h-137v104h137zM785 230v-104h-137v104h137zM785 111v-111h-137v111h137zM347 245h-138v104h138v-104zM347 126
h-138v104h138v-104zM347 0h-138v111h138v-111zM209 364v104h138v-104h-138zM209 483v104h138v-104h-138zM209 602v111h138v-111h-138zM55 602v111h138v-111h-138zM55 0v111h138v-111h-138zM801 602v111h138v-111h-138zM801 0v111h138v-111h-138zM632 0h-126v111h126v-111z
M489 0h-126v111h126v-111zM632 602h-126v111h126v-111zM489 602h-126v111h126v-111z" />
    <glyph glyph-name="eight" unicode="8" horiz-adv-x="994" 
d="M632 315h-126v117h126v-117zM489 315h-126v117h126v-117zM648 468h137v-104h-137v104zM648 587h137v-104h-137v104zM648 713h137v-111h-137v111zM785 349v-104h-137v104h137zM785 230v-104h-137v104h137zM785 111v-111h-137v111h137zM347 245h-138v104h138v-104zM347 126
h-138v104h138v-104zM347 0h-138v111h138v-111zM209 364v104h138v-104h-138zM209 483v104h138v-104h-138zM209 602v111h138v-111h-138zM55 602v111h138v-111h-138zM55 0v111h138v-111h-138zM801 602v111h138v-111h-138zM801 0v111h138v-111h-138zM632 0h-126v111h126v-111z
M489 0h-126v111h126v-111zM632 602h-126v111h126v-111zM489 602h-126v111h126v-111z" />
    <glyph glyph-name="nine" unicode="9" horiz-adv-x="994" 
d="M632 315h-126v117h126v-117zM489 315h-126v117h126v-117zM648 468h137v-104h-137v104zM648 587h137v-104h-137v104zM648 713h137v-111h-137v111zM785 349v-104h-137v104h137zM785 230v-104h-137v104h137zM785 111v-111h-137v111h137zM347 245h-138v104h138v-104zM347 126
h-138v104h138v-104zM347 0h-138v111h138v-111zM209 364v104h138v-104h-138zM209 483v104h138v-104h-138zM209 602v111h138v-111h-138zM55 602v111h138v-111h-138zM55 0v111h138v-111h-138zM801 602v111h138v-111h-138zM801 0v111h138v-111h-138zM632 0h-126v111h126v-111z
M489 0h-126v111h126v-111zM632 602h-126v111h126v-111zM489 602h-126v111h126v-111z" />
    <glyph glyph-name="colon" unicode=":" horiz-adv-x="278" 
d="M62 160h162v-160h-162v160zM62 505h162v-160h-162v160z" />
    <glyph glyph-name="semicolon" unicode=";" horiz-adv-x="278" 
d="M203 20q0 -46 -11.5 -78.5t-31.5 -54.5t-47.5 -35t-59.5 -20v61q16 5 29.5 10t23 16t15.5 30t8 51h-88v160h162v-140zM40 505h162v-160h-162v160z" />
    <glyph glyph-name="less" unicode="&#x3c;" horiz-adv-x="584" 
d="M504 364l-292 -114l292 -118v-111l-456 194v66l456 194v-111z" />
    <glyph glyph-name="equal" unicode="=" horiz-adv-x="584" 
d="M40 323v110h504v-110h-504zM40 69v110h504v-110h-504z" />
    <glyph glyph-name="greater" unicode="&#x3e;" horiz-adv-x="584" 
d="M70 475l456 -194v-66l-456 -194v111l292 118l-292 114v111z" />
    <glyph glyph-name="question" unicode="?" horiz-adv-x="584" 
d="M111 514h-90v110q62 53 134.5 80t135.5 27q59 0 104.5 -14.5t76 -41.5t46.5 -64.5t16 -82.5q0 -44 -13 -79.5t-37 -62t-56.5 -44t-71.5 -26.5l-6 -106h-122l-12 186q80 3 127 36t47 87q0 27 -12.5 44.5t-33 28.5t-45.5 15.5t-50 4.5q-38 0 -72 -14.5t-66 -38.5v-45z
M369 0h-162v160h162v-160z" />
    <glyph glyph-name="at" unicode="@" horiz-adv-x="1022" 
d="M304 359v105q49 29 103 45t109 16q54 0 101 -13t82.5 -39t56 -66.5t20.5 -94.5v-198q0 -11 4.5 -15.5t9.5 -4.5q24 0 41.5 23.5t28.5 58t16.5 73.5t5.5 69q0 69 -26.5 127t-74 100.5t-113.5 66.5t-145 24q-93 0 -164.5 -33t-120 -86.5t-73 -122t-24.5 -138.5
q0 -87 31 -158t85 -121t126 -77.5t155 -27.5q66 0 131 21l16 -100q-38 -15 -76 -21t-77 -6q-109 0 -202 36.5t-161 101.5t-106.5 155.5t-38.5 197.5q0 90 32 177t95 154.5t157 109t217 41.5q106 0 192 -32t147 -88t94.5 -132.5t33.5 -165.5q0 -64 -17 -125t-47 -108
t-71.5 -76t-89.5 -29q-42 0 -67.5 13t-46.5 45q-49 -35 -93 -48.5t-95 -13.5q-88 0 -141.5 40.5t-53.5 113.5q0 50 19.5 86t51.5 59.5t74 34.5t87 11q34 0 72 -7t67 -21q0 37 -10 60.5t-26.5 37t-39 18.5t-46.5 5q-30 0 -60 -6t-56 -16v-36h-99zM510 80q35 0 69 14t62 34v76
q-21 9 -54 16t-62 7q-25 0 -46.5 -4t-38 -14t-26 -25.5t-9.5 -37.5q0 -21 10 -34t25.5 -20t34 -9.5t35.5 -2.5z" />
    <glyph glyph-name="A" unicode="A" horiz-adv-x="711" 
d="M453 193h-210l-27 -91h68v-102h-271v102h62l167 509h-66v102h244l199 -611h76v-102h-186zM415 312l-67 230l-67 -230h134z" />
    <glyph glyph-name="B" unicode="B" horiz-adv-x="739" 
d="M55 713h401q37 0 69.5 -14t57 -38t38.5 -56.5t14 -69.5q0 -28 -8.5 -53.5t-22.5 -47.5q47 -32 75 -83.5t28 -112.5q0 -49 -19 -92.5t-51 -75.5t-75.5 -51t-92.5 -19h-414v102h76v509h-76v102zM275 364v-245h179q24 0 45.5 10t37.5 26.5t25.5 39t9.5 47.5q0 24 -9.5 46.5
t-25.5 39t-37.5 26.5t-45.5 10h-179zM275 470h166q25 0 42.5 20t17.5 44q0 25 -17.5 43t-42.5 18h-166v-125z" />
    <glyph glyph-name="C" unicode="C" horiz-adv-x="713" 
d="M662 253v-146q-48 -57 -116 -91t-149 -34q-76 0 -142 28t-115 78.5t-77.5 120t-28.5 152.5q0 78 28 145.5t77 117t115.5 78t142.5 28.5q75 0 136.5 -28.5t109.5 -76.5v-144h-102v77q-62 53 -144 53q-46 0 -87.5 -19t-72.5 -52.5t-49 -79t-18 -99.5t18 -101.5t49 -83
t72.5 -56t87.5 -20.5q49 0 90 20t73 55v78h102z" />
    <glyph glyph-name="D" unicode="D" horiz-adv-x="813" 
d="M55 713h367q74 0 139 -28t113.5 -76.5t76.5 -113.5t28 -139t-28 -138.5t-76.5 -113t-113.5 -76.5t-139 -28h-367v102h76v509h-76v102zM275 119h127q49 0 92.5 18.5t75.5 51t51 75.5t19 92t-19 92.5t-51 75.5t-75.5 51t-92.5 19h-127v-475z" />
    <glyph glyph-name="E" unicode="E" horiz-adv-x="697" 
d="M55 713h580v-195h-102v76h-258v-166h288v-119h-288v-190h258v75h102v-194h-580v102h76v509h-76v102z" />
    <glyph glyph-name="F" unicode="F" horiz-adv-x="659" 
d="M55 713h580v-195h-102v76h-258v-184h288v-119h-288v-189h88v-102h-308v102h76v509h-76v102z" />
    <glyph glyph-name="G" unicode="G" horiz-adv-x="756" 
d="M666 112q-51 -61 -119.5 -95.5t-149.5 -34.5q-76 0 -142 28t-115 78.5t-77.5 120t-28.5 152.5q0 78 28 145.5t77 117t115.5 78t142.5 28.5q79 0 143.5 -27t114.5 -78v-144h-114v77q-30 28 -66 40.5t-78 12.5q-46 0 -87.5 -19t-72.5 -52.5t-49 -79t-18 -99.5t18 -101.5
t49 -83t72.5 -56t87.5 -20.5q42 0 78 14.5t65 40.5v133h-93v100h296v-100h-77v-176v0z" />
    <glyph glyph-name="H" unicode="H" horiz-adv-x="840" 
d="M55 713h294v-102h-73v-178h288v178h-73v102h294v-102h-77v-509h77v-102h-294v102h73v212h-288v-212h73v-102h-294v102h77v509h-77v102z" />
    <glyph glyph-name="I" unicode="I" horiz-adv-x="406" 
d="M55 102h76v509h-76v102h296v-102h-76v-509h76v-102h-296v102z" />
    <glyph glyph-name="J" unicode="J" horiz-adv-x="500" 
d="M131 713h296v-521q0 -50 -17.5 -89t-47 -65.5t-68.5 -40.5t-83 -14q-37 0 -71.5 10.5t-62.5 30.5t-47.5 49t-26.5 66l105 39q14 -35 40 -56t58 -21t54.5 22.5t22.5 54.5v433h-152v102z" />
    <glyph glyph-name="K" unicode="K" horiz-adv-x="753" 
d="M55 713h294v-102h-74v-206l285 308h156v-102h-95l-153 -166l203 -343h61v-102h-152l-206 344l-99 -107v-135h74v-102h-294v102h76v509h-76v102z" />
    <glyph glyph-name="L" unicode="L" horiz-adv-x="622" 
d="M55 0v102h76v509h-76v102h300v-102h-80v-492h209l21 95l99 -21l-41 -193h-508z" />
    <glyph glyph-name="M" unicode="M" horiz-adv-x="981" 
d="M630 102h76v287l-150 -341h-128l-153 348v-294h76v-102h-296v102h76v509h-76v102h211l226 -536l226 536h208v-102h-76v-509h76v-102h-296v102z" />
    <glyph glyph-name="N" unicode="N" horiz-adv-x="817" 
d="M55 713h222l286 -487v385h-74v102h294v-102h-76v-611h-144l-288 489v-387h74v-102h-294v102h76v509h-76v102z" />
    <glyph glyph-name="O" unicode="O" horiz-adv-x="726" 
d="M687 356q0 -85 -25.5 -154t-69.5 -117.5t-103 -75t-126 -26.5q-73 0 -132.5 26.5t-102 75.5t-66 118t-23.5 155q0 84 23.5 152.5t66 117t101.5 75.5t131 27q68 0 127.5 -27t103.5 -76t69.5 -118t25.5 -153zM363 101q49 0 84 24t57 60.5t32.5 81.5t10.5 87q0 45 -10.5 91
t-33 82.5t-57 60t-81.5 23.5q-50 0 -85 -23t-57.5 -59.5t-33 -81.5t-10.5 -88q0 -44 10.5 -89.5t33 -83t57.5 -61.5t83 -24z" />
    <glyph glyph-name="P" unicode="P" horiz-adv-x="648" 
d="M55 713h342q49 0 92.5 -19t75.5 -51t51 -75.5t19 -92.5t-19 -92.5t-51 -75.5t-75.5 -51t-92.5 -19h-122v-135h76v-102h-296v102h76v509h-76v102zM275 594v-238h99q24 0 46 9.5t38.5 25.5t26 37.5t9.5 45.5q0 25 -9.5 47t-26 38t-38.5 25.5t-46 9.5h-99z" />
    <glyph glyph-name="Q" unicode="Q" horiz-adv-x="781" 
d="M687 356q0 -68 -16 -125t-45 -102l44 -44h56v-102h-120l-61 59q-39 -29 -85 -44t-97 -15q-73 0 -132.5 26.5t-102 75.5t-66 118t-23.5 155q0 84 23.5 152.5t66 117t101.5 75.5t131 27q68 0 127.5 -27t103.5 -76t69.5 -118t25.5 -153zM440 315l88 -88q12 30 17.5 63
t5.5 64q0 45 -11 91t-33.5 82.5t-58 60t-83.5 23.5q-51 0 -87 -23t-59 -59.5t-33.5 -81.5t-10.5 -88q0 -44 11 -89.5t33.5 -83t58 -61.5t85.5 -24q28 0 51 7.5t43 21.5l-102 102z" />
    <glyph glyph-name="R" unicode="R" horiz-adv-x="765" 
d="M55 713h414q49 0 92.5 -19t75.5 -51t51 -75.5t19 -92.5q0 -69 -34.5 -124.5t-91.5 -85.5l87 -163h77v-102h-169l-127 237h-174v-135h76v-102h-296v102h76v509h-76v102zM275 594v-238h175q26 0 48 9.5t37.5 25.5t24 37.5t8.5 45.5q0 25 -9.5 47t-25.5 38t-37.5 25.5
t-45.5 9.5h-175z" />
    <glyph glyph-name="S" unicode="S" horiz-adv-x="647" 
d="M177 267v-74q8 -42 45 -67t97 -25q69 0 108.5 26t39.5 82q0 25 -17 42.5t-45.5 30.5t-64.5 24t-73.5 23.5t-73 29t-64 40t-45.5 56.5t-17 79q0 42 19 78t54 62.5t84 41t110 14.5q87 0 153.5 -32t101.5 -87v-128h-122v82q-29 28 -62 40.5t-71 12.5q-57 0 -90.5 -21.5
t-33.5 -62.5q0 -31 29.5 -50t73.5 -34.5t95.5 -31.5t95.5 -42t73.5 -66t29.5 -102q0 -49 -19.5 -90.5t-56.5 -71.5t-90.5 -46.5t-122.5 -16.5q-57 0 -101.5 13.5t-76.5 37t-53.5 55.5t-31.5 70v108h122z" />
    <glyph glyph-name="T" unicode="T" horiz-adv-x="604" 
d="M154 102h76v492h-114v-76h-102v195h576v-195h-102v76h-114v-492h76v-102h-296v102z" />
    <glyph glyph-name="U" unicode="U" horiz-adv-x="768" 
d="M21 713h291v-102h-72v-367q0 -30 11 -56.5t30.5 -46t46 -30.5t56.5 -11t56 11t45.5 30.5t31 46t11.5 56.5v367h-72v102h291v-102h-75v-340q0 -69 -22.5 -122.5t-61.5 -90t-91.5 -56t-112.5 -19.5t-112.5 19.5t-91.5 56t-61.5 90t-22.5 122.5v340h-75v102z" />
    <glyph glyph-name="V" unicode="V" horiz-adv-x="770" 
d="M458 713h296v-102h-97l-199 -611h-144l-201 611h-97v102h296v-102h-57l131 -427l130 427h-58v102z" />
    <glyph glyph-name="W" unicode="W" horiz-adv-x="1064" 
d="M16 713h296v-102h-64l135 -418l96 469h95l107 -469l135 418h-64v102h296v-102h-95l-200 -611h-131l-94 405l-84 -405h-133l-201 611h-94v102z" />
    <glyph glyph-name="X" unicode="X" horiz-adv-x="704" 
d="M42 713h148l162 -243l162 243h148v-102h-71l-167 -243l188 -266h73v-102h-148l-185 267l-185 -267h-148v102h72l189 266l-168 243h-70v102z" />
    <glyph glyph-name="Y" unicode="Y" horiz-adv-x="721" 
d="M409 713h296v-102h-81l-191 -321v-188h76v-102h-296v102h76v188l-192 321h-81v102h296v-102h-74l122 -214l122 214h-73v102z" />
    <glyph glyph-name="Z" unicode="Z" horiz-adv-x="673" 
d="M600 0h-582l388 594h-263v-76h-102v195h587l-389 -594h274l20 94l106 -21z" />
    <glyph glyph-name="bracketleft" unicode="[" 
d="M185 -76h124v-113h-258v902h258v-115h-124v-674z" />
    <glyph glyph-name="backslash" unicode="\" horiz-adv-x="320" 
d="M-26 797h117l276 -926h-117z" />
    <glyph glyph-name="bracketright" unicode="]" horiz-adv-x="341" 
d="M149 598h-124v115h258v-902h-258v113h124v674z" />
    <glyph glyph-name="asciicircum" unicode="^" horiz-adv-x="469" 
d="M19 268l174 420h79l173 -420h-104l-109 260l-108 -260h-105z" />
    <glyph glyph-name="underscore" unicode="_" horiz-adv-x="604" 
d="M0 -56h604v-92h-604v92z" />
    <glyph glyph-name="grave" unicode="`" 
d="M98 593l-141 120l139 30l116 -150h-114z" />
    <glyph glyph-name="a" unicode="a" horiz-adv-x="667" 
d="M454 56q-28 -32 -66 -52.5t-91 -20.5q-56 0 -103.5 21t-82.5 57.5t-55 85.5t-20 104t19.5 104t54.5 86t82.5 59t103.5 22q48 0 86 -20.5t60 -50.5v53h180v-99h-47v-306h71v-99h-187zM169 250q0 -32 10.5 -60.5t29 -49.5t43.5 -33.5t53 -12.5t53.5 10.5t45 31t30.5 49.5
t11 65t-11 65.5t-30.5 50.5t-45 32.5t-53.5 11.5t-53 -13t-43.5 -35.5t-29 -51.5t-10.5 -60z" />
    <glyph glyph-name="b" unicode="b" horiz-adv-x="628" 
d="M24 713h204v-272q29 38 67 59.5t83 21.5q44 0 82.5 -21t67 -57t45 -85t16.5 -106t-16.5 -106.5t-45 -85.5t-67 -57t-82.5 -21q-48 0 -88.5 24.5t-69.5 67.5l-9 -75h-118v614h-69v99zM227 253q0 -35 9 -65.5t25 -52.5t37 -34.5t45 -12.5t45 12.5t37 34.5t25 52.5t9 65.5
t-9 65.5t-25 52.5t-37 34.5t-45 12.5t-45 -12.5t-37 -34.5t-25 -52.5t-9 -65.5z" />
    <glyph glyph-name="c" unicode="c" horiz-adv-x="537" 
d="M405 379q-25 19 -53 24.5t-54 5.5q-30 0 -55.5 -12.5t-44 -33.5t-29 -49.5t-10.5 -61.5t10.5 -61.5t29 -49.5t44 -33.5t55.5 -12.5q26 0 52.5 5.5t51.5 22.5v50h93v-105q-37 -39 -87.5 -62t-109.5 -23q-56 0 -105 18t-85.5 52.5t-57.5 84.5t-21 114q0 62 21 111.5
t57.5 84.5t85.5 54t105 19q60 0 111.5 -23.5t88.5 -65.5v-107h-93v54z" />
    <glyph glyph-name="d" unicode="d" horiz-adv-x="624" 
d="M405 80q-30 -45 -73 -71t-92 -26q-44 0 -81.5 21t-64.5 57t-42.5 84t-15.5 102q0 60 18 110.5t48 87t69.5 57t81.5 20.5q45 0 82 -21t63 -55v168h-69v99h204v-614h69v-99h-187zM167 244q0 -33 8.5 -62t23.5 -50t35 -33.5t43 -12.5t45 12.5t39 35t27 54t10 70.5
q0 33 -8 61.5t-23 49.5t-35.5 33.5t-45.5 12.5q-23 0 -44.5 -12t-38 -34.5t-26.5 -54t-10 -70.5z" />
    <glyph glyph-name="e" unicode="e" horiz-adv-x="583" 
d="M503 84q-38 -50 -91 -75.5t-114 -25.5q-57 0 -104 19t-81.5 54.5t-53.5 85t-19 110.5t20 110.5t54.5 85t80.5 54.5t99 19t98.5 -21t79 -57.5t52.5 -85.5t19 -105q0 -30 -6 -57h-363q3 -26 15 -44.5t28.5 -30.5t37 -18t41.5 -6q32 0 63.5 12.5t57.5 41.5zM413 281
q0 28 -10 51.5t-27 40.5t-38.5 26.5t-43.5 9.5q-27 0 -49.5 -9.5t-39 -26.5t-26 -40.5t-9.5 -51.5h243z" />
    <glyph glyph-name="f" unicode="f" horiz-adv-x="372" 
d="M26 99h69v308h-69v97h69v74q0 28 10.5 52.5t29 43t43 29t52.5 10.5h159l-24 -112h-92q-30 0 -36.5 -9.5t-6.5 -32.5v-55h135l-24 -98h-111v-307h84v-99h-288v99z" />
    <glyph glyph-name="g" unicode="g" horiz-adv-x="625" 
d="M534 41q0 -62 -19.5 -108t-53 -77t-79 -46.5t-96.5 -15.5q-60 0 -110.5 26t-85.5 70l87 61q16 -23 41 -34.5t53 -11.5q24 0 47 7.5t41 22.5t29.5 36t11.5 48v83q-29 -34 -67.5 -53.5t-83.5 -19.5q-44 0 -82 19.5t-67 53t-45.5 78.5t-16.5 96t16.5 96t45.5 78t67 52.5
t82 19.5q48 0 89.5 -23t70.5 -62l7 67h187v-99h-69v-364zM168 271q0 -32 9 -59t25 -46.5t37 -31t45 -11.5t45 11.5t37 31t25 46.5t9 59q0 31 -9 58t-25 47t-37 31t-45 11t-45 -11t-37 -31t-25 -47t-9 -58z" />
    <glyph glyph-name="h" unicode="h" horiz-adv-x="630" 
d="M407 326q0 35 -24.5 59.5t-59.5 24.5q-19 0 -36 -7t-29.5 -19.5t-19.5 -29t-7 -35.5v-220h65v-99h-266v99h69v515h-69v99h201v-263q23 32 59.5 52t79.5 20q35 0 65.5 -13.5t53.5 -36.5t36.5 -53.5t13.5 -65.5v-254h69v-99h-201v326z" />
    <glyph glyph-name="i" unicode="i" horiz-adv-x="337" 
d="M32 504h204v-405h69v-99h-273v99h69v306h-69v99zM101 713h135v-135h-135v135z" />
    <glyph glyph-name="j" unicode="j" horiz-adv-x="273" 
d="M1 504h217v-558q0 -72 -35.5 -103.5t-99.5 -31.5h-111v112h69q27 0 34.5 9t7.5 33v440h-82v99zM83 713h135v-135h-135v135z" />
    <glyph glyph-name="k" unicode="k" horiz-adv-x="586" 
d="M30 713h204v-407l104 104h-35v94h272v-94h-96l-100 -98l141 -213h66v-99h-135l-152 232l-65 -64v-69h68v-99h-272v99h69v515h-69v99z" />
    <glyph glyph-name="l" unicode="l" horiz-adv-x="329" 
d="M24 713h204v-614h68v-99h-203v614h-69v99z" />
    <glyph glyph-name="m" unicode="m" horiz-adv-x="1036" 
d="M804 307q0 51 -28 77t-77 26q-24 0 -45 -9.5t-36.5 -25t-24.5 -36.5t-9 -45v-195h69v-99h-203v307q0 53 -27.5 78t-77.5 25q-24 0 -45 -9.5t-36.5 -25t-24.5 -36.5t-9 -45v-195h69v-99h-273v99h69v306h-73v99h191l11 -85q26 46 72 74.5t103 28.5q59 0 105 -32.5t66 -83.5
q25 51 74 83.5t109 32.5q38 0 72 -14.5t59 -40t39.5 -59.5t14.5 -72v-237h69v-99h-203v307z" />
    <glyph glyph-name="n" unicode="n" horiz-adv-x="662" 
d="M26 504h191l10 -83q26 45 70 72.5t98 27.5q36 0 68 -14.5t56 -39.5t38 -59t14 -72v-237h69v-99h-197v308q0 102 -100 102q-42 0 -72.5 -27.5t-36.5 -69.5v-214h69v-99h-273v99h69v306h-73v99z" />
    <glyph glyph-name="o" unicode="o" horiz-adv-x="608" 
d="M435 252q0 39 -12 69t-31 49.5t-42.5 29.5t-45.5 10q-23 0 -46.5 -10t-42 -30t-30.5 -49.5t-12 -68.5t11.5 -68.5t30 -49t42 -29.5t47.5 -10t47.5 10t42 29.5t30 49t11.5 68.5zM569 252q0 -56 -20 -105t-55.5 -85.5t-84 -57.5t-105.5 -21t-105.5 21t-84 57.5t-55.5 85.5
t-20 105t20 105t55.5 86t84 58t105.5 21t105.5 -21t84 -58t55.5 -86t20 -105z" />
    <glyph glyph-name="p" unicode="p" horiz-adv-x="628" 
d="M24 504h187l9 -73q29 42 69.5 67t88.5 25q44 0 82.5 -21t67 -57t45 -85t16.5 -106t-16.5 -106.5t-45 -86t-67 -57.5t-82.5 -21q-45 0 -83 20t-67 56v-150h69v-99h-273v99h69v496h-69v99zM227 249q0 -32 9 -60t25 -49t37 -33t45 -12t45 12.5t37 34.5t25 51t9 61t-9 60.5
t-25 49.5t-37 33.5t-45 12.5t-45 -13t-37 -35t-25 -51.5t-9 -61.5z" />
    <glyph glyph-name="q" unicode="q" horiz-adv-x="627" 
d="M327 -91h69v152q-29 -37 -67.5 -57.5t-82.5 -20.5t-82 21t-67 57t-45.5 85.5t-16.5 106.5t16.5 106t45.5 85t67 57t82 21q48 0 88.5 -23.5t69.5 -65.5l9 71h187v-99h-69v-496h69v-99h-273v99zM165 249q0 -32 9 -60t25 -49t37 -33t45 -12t45 12.5t37 34.5t25 51t9 61
t-9 60.5t-25 49.5t-37 33.5t-45 12.5t-45 -13t-37 -35t-25 -51.5t-9 -61.5z" />
    <glyph glyph-name="r" unicode="r" horiz-adv-x="412" 
d="M36 504h193l9 -80q30 45 71.5 71.5t89.5 26.5v-135q-30 0 -58 -7.5t-49 -24.5t-33.5 -46t-12.5 -72v-138h75v-99h-279v99h69v306h-75v99z" />
    <glyph glyph-name="s" unicode="s" horiz-adv-x="501" 
d="M343 347q0 40 -25 56.5t-64 16.5q-43 0 -58.5 -15.5t-15.5 -35.5q0 -24 21 -37t53 -22t68.5 -18.5t68.5 -27.5t53 -47t21 -78q0 -6 -1.5 -20t-8.5 -31.5t-20.5 -36t-36.5 -33.5t-58.5 -25t-85.5 -10q-49 0 -85 9.5t-61.5 27.5t-41.5 43.5t-25 57.5v69h100v-24
q2 -23 14 -41q11 -15 33.5 -27.5t65.5 -12.5q31 0 49.5 5.5t27.5 13.5t11.5 16t2.5 13q0 26 -21 39t-53 21.5t-69 18t-69 27t-53 47.5t-21 82q0 29 12.5 57t37 49.5t61 34.5t84.5 13q72 0 122.5 -30t66.5 -82v-87h-100v24z" />
    <glyph glyph-name="t" unicode="t" horiz-adv-x="372" 
d="M14 504h67v151h135v-151h135l-24 -98h-111v-252q0 -24 8 -33t35 -9h80v-112h-123q-64 0 -99.5 31.5t-35.5 103.5v271h-67v98z" />
    <glyph glyph-name="u" unicode="u" horiz-adv-x="667" 
d="M29 504h208v-308q0 -42 23.5 -71.5t65.5 -29.5q51 0 82 31.5t31 76.5v202h-73v99h208v-405h69v-99h-188l-8 69q-30 -40 -71 -63t-89 -23q-38 0 -72 14.5t-59 39.5t-39.5 59t-14.5 72v237h-73v99z" />
    <glyph glyph-name="v" unicode="v" horiz-adv-x="587" 
d="M351 0h-114l-156 405h-69v99h267v-99h-68l83 -249l116 348h166v-99h-69z" />
    <glyph glyph-name="w" unicode="w" horiz-adv-x="832" 
d="M12 504h267v-99h-67l72 -239l79 292h108l77 -293l102 339h171v-99h-69l-135 -405h-123l-77 287l-78 -287h-123l-135 405h-69v99z" />
    <glyph glyph-name="x" unicode="x" horiz-adv-x="511" 
d="M23 504h135l97 -156l98 156h135v-99h-67l-98 -144l110 -162h67v-99h-135l-110 173l-109 -173h-135v99h67l110 162l-98 144h-67v99z" />
    <glyph glyph-name="y" unicode="y" horiz-adv-x="605" 
d="M11 504h267v-99h-73l111 -271l113 370h165v-99h-69l-145 -459q-23 -72 -68.5 -103.5t-109.5 -31.5h-135l35 112h86q27 0 45.5 17t29.5 60l-183 405h-69v99z" />
    <glyph glyph-name="z" unicode="z" horiz-adv-x="484" 
d="M33 504h432l-250 -392h131l17 77l99 -21l-36 -168h-418l251 392h-127v-69h-99v181z" />
    <glyph glyph-name="braceleft" unicode="{" horiz-adv-x="389" 
d="M365 -190q-119 0 -177 33t-58 104v194q0 23 -11 38t-26 23.5t-31 11.5t-26 3v92q10 0 26 3t31 11.5t26 23.5t11 38v191q0 71 58 104t177 33l-24 -100q-27 0 -42.5 -6t-23 -15.5t-9.5 -21.5t-2 -23v-173q0 -27 -13 -47t-31.5 -33t-38 -20t-31.5 -8v-6q12 -1 31.5 -8
t38 -20t31.5 -33t13 -47v-164q0 -11 2 -23t9.5 -21.5t23 -15.5t42.5 -6z" />
    <glyph glyph-name="bar" unicode="|" horiz-adv-x="260" 
d="M196 788v-977h-112v977h112z" />
    <glyph glyph-name="braceright" unicode="}" horiz-adv-x="389" 
d="M47 -78q27 0 42.5 6t23 15.5t9.5 21.5t2 23v164q0 27 13 47t31.5 33t38 20t31.5 8v6q-12 1 -31.5 8t-38 20t-31.5 33t-13 47v173q0 11 -2 23t-9.5 21.5t-23 15.5t-42.5 6l-24 100q119 0 177 -33t58 -104v-191q0 -23 11 -38t26 -23.5t31 -11.5t26 -3v-92q-10 0 -26 -3
t-31 -11.5t-26 -23.5t-11 -38v-194q0 -71 -58 -104t-177 -33z" />
    <glyph glyph-name="asciitilde" unicode="~" horiz-adv-x="584" 
d="M526 301q-3 -14 -9.5 -35t-22 -40.5t-41 -33t-65.5 -13.5q-25 0 -48.5 7t-46.5 16t-46 16t-46 7q-17 0 -28 -6.5t-17.5 -15.5t-10 -18t-4.5 -15l-82 31q4 18 12.5 40t25.5 41t45 31.5t71 12.5q22 0 43 -7t42 -16t42 -16t44 -7q16 0 26.5 5t17.5 12.5t10.5 16.5t5.5 17z
" />
    <glyph glyph-name="exclamdown" unicode="&#xa1;" 
d="M252 0h-171l49 461h74zM85 713h162v-160h-162v160z" />
    <glyph glyph-name="cent" unicode="&#xa2;" horiz-adv-x="536" 
d="M405 570q-18 14 -38 20t-40 8v-311q19 2 38 8t37 19v50h93v-105q-32 -35 -75 -57t-93 -27v-77h-66v78q-50 6 -92 26.5t-73.5 54.5t-49 80.5t-17.5 105.5q0 57 17.5 103.5t49 81t73.5 55.5t92 27v77h66v-77q51 -5 95 -28t76 -59v-107h-93v54zM159 443q0 -55 28 -96.5
t74 -55.5v304q-46 -14 -74 -55.5t-28 -96.5z" />
    <glyph glyph-name="sterling" unicode="&#xa3;" horiz-adv-x="591" 
d="M552 126q-3 -15 -11 -37.5t-24.5 -43.5t-44.5 -36t-71 -15q-27 0 -54 8t-54.5 17t-54 17t-51.5 8q-19 0 -31 -7t-19 -16.5t-10.5 -20t-4.5 -16.5l-92 33q0 29 17 53.5t37.5 48.5t37.5 49t17 55q0 11 -2 25t-5.5 28t-7.5 26t-8 19h-92l24 60h34q-12 26 -20 44.5t-12.5 34
t-6.5 30t-2 33.5q0 27 12.5 61.5t41.5 65.5t75 52t114 21q39 0 81 -11t77 -38t58 -72.5t25 -114.5l-124 18q-4 23 -11.5 41.5t-21 32t-34.5 20.5t-51 7q-29 0 -48 -10t-30 -24.5t-15.5 -30t-4.5 -27.5q0 -17 2 -25.5t8 -19.5t17 -30.5t28 -57.5h167l-24 -60h-119
q5 -28 5 -51q0 -31 -9 -54t-31 -52q21 -3 41.5 -9.5t41 -12.5t41.5 -10.5t43 -4.5q17 0 28.5 5.5t19 13.5t11.5 17.5t6 18.5z" />
    <glyph glyph-name="currency" unicode="&#xa4;" horiz-adv-x="553" 
d="M150 504h221v-150h150v-221h-371v371zM290 401v54h-56v-54h56zM150 133v-150l-149 150h149z" />
    <glyph glyph-name="yen" unicode="&#xa5;" horiz-adv-x="677" 
d="M387 713h296v-102h-81l-120 -201h77v-86h-128l-20 -34h136v-86h-136v-102h76v-102h-296v102h76v102h-137v86h137l-21 34h-128v86h77l-120 201h-81v102h296v-102h-72l120 -201l120 201h-71v102z" />
    <glyph glyph-name="brokenbar" unicode="&#xa6;" horiz-adv-x="260" 
d="M196 788v-412h-112v412h112zM196 222v-412h-112v412h112z" />
    <glyph glyph-name="section" unicode="&#xa7;" horiz-adv-x="556" 
d="M66 257q0 29 9 57q8 24 24 51t46 48q-23 22 -38.5 53t-15.5 76q0 36 11.5 69.5t34.5 60t57 42t79 15.5q46 0 80.5 -15.5t57.5 -42t34.5 -60t11.5 -69.5v-50h-113v50q0 12 -4.5 25.5t-13.5 24.5t-22 18t-31 7q-20 0 -33 -8t-21 -20t-11.5 -25t-3.5 -22q0 -28 20.5 -45.5
t51.5 -31.5t67 -28.5t67 -36t51.5 -53.5t20.5 -81q-2 -32 -11 -62q-8 -26 -23.5 -52t-44.5 -42q23 -22 38.5 -53t15.5 -76q0 -36 -11.5 -69.5t-34.5 -60t-57 -42t-79 -15.5q-46 0 -80.5 15.5t-57.5 42t-34.5 60t-11.5 69.5v43h113v-43q0 -12 4.5 -26t13.5 -25t22 -18.5
t31 -7.5q20 0 33 8.5t21 20.5t11.5 25.5t3.5 22.5q0 23 -20.5 37.5t-51.5 28t-67 28t-67 37.5t-51.5 57.5t-20.5 87.5zM174 275q0 -23 9.5 -44t25.5 -37t36.5 -25t43.5 -9q36 0 59 24t23 59q0 23 -9.5 44t-25.5 36.5t-36.5 25t-42.5 9.5q-36 0 -59.5 -24t-23.5 -59z" />
    <glyph glyph-name="dieresis" unicode="&#xa8;" 
d="M323 603h-126v120h126v-120zM136 603h-126v120h126v-120z" />
    <glyph glyph-name="copyright" unicode="&#xa9;" horiz-adv-x="752" 
d="M0 357q0 77 29.5 145t81 118.5t120 80t146.5 29.5t146.5 -29.5t119.5 -80t80.5 -118.5t29.5 -145q0 -78 -29.5 -146t-80.5 -118.5t-119.5 -80t-146.5 -29.5t-146.5 29.5t-120 80t-81 118.5t-29.5 146zM95 357q0 -61 23 -114t62 -92.5t90 -62.5t107 -23q55 0 106 23
t90 62.5t62.5 92.5t23.5 114t-23.5 114t-62.5 92.5t-90 62t-106 22.5q-56 0 -107 -22.5t-90 -62t-62 -92.5t-23 -114zM470 455q-19 15 -41 19t-42 4q-24 0 -44 -9.5t-34.5 -26t-22.5 -39t-8 -47.5q0 -26 8 -48.5t22.5 -38.5t34.5 -26t44 -10q20 0 40.5 4.5t40.5 17.5v39h72
v-82q-29 -30 -68 -48t-85 -18q-44 0 -82.5 14t-67 41t-44.5 66t-16 89q0 48 16 86.5t44.5 66t67 42.5t82.5 15q46 0 86.5 -18.5t69.5 -51.5v-83h-73v42z" />
    <glyph glyph-name="ordfeminine" unicode="&#xaa;" horiz-adv-x="400" 
d="M50 618v68q32 18 67 28t70 10t65.5 -8t53.5 -25t36.5 -42.5t13.5 -60.5v-137h44v-64h-120l-4 29q-32 -23 -60.5 -31.5t-61.5 -8.5q-56 0 -91 26t-35 73q0 32 13 55.5t33.5 38.5t47.5 22t56 7q22 0 47 -4.5t43 -13.5q0 24 -6.5 38.5t-17 23t-25 11.5t-30.5 3
q-19 0 -38.5 -4t-36.5 -11v-23h-64zM184 441q22 0 44 9t40 22v49q-13 6 -34.5 10.5t-40.5 4.5q-16 0 -30 -2.5t-24.5 -9t-16.5 -16.5t-6 -24t6.5 -22.5t16.5 -13t22 -6t23 -1.5z" />
    <glyph glyph-name="guillemotleft" unicode="&#xab;" horiz-adv-x="645" 
d="M245 28l-147 229l147 223l90 -57l-112 -173l112 -173zM474 28l-147 229l147 223l90 -57l-112 -173l112 -173z" />
    <glyph glyph-name="logicalnot" unicode="&#xac;" horiz-adv-x="626" 
d="M35 432h544v-315h-86v206h-458v109z" />
    <glyph glyph-name="registered" unicode="&#xae;" horiz-adv-x="752" 
d="M27 459q0 72 27.5 135t75 110t111.5 74t136 27t135.5 -27t111 -74t74.5 -110t27 -135t-27 -135t-74.5 -110.5t-111 -74.5t-135.5 -27t-136 27t-111.5 74.5t-75 110.5t-27.5 135zM116 459q0 -56 21.5 -105.5t57.5 -86.5t83.5 -58t98.5 -21t98.5 21t83.5 58t57.5 86.5
t21.5 105.5t-21.5 105.5t-57.5 86t-83.5 57.5t-98.5 21t-98.5 -21t-83.5 -57.5t-57.5 -86t-21.5 -105.5zM223 646h144l7 -60q22 33 53 53t67 20v-101q-23 0 -43.5 -5.5t-36.5 -18t-25 -34.5t-9 -54v-103h56v-74h-209v74h52v229h-56v74z" />
    <glyph glyph-name="macron" unicode="&#xaf;" horiz-adv-x="368" 
d="M355 608h-345v86h345v-86z" />
    <glyph glyph-name="degree" unicode="&#xb0;" horiz-adv-x="400" 
d="M127 583q0 -30 21.5 -51.5t51.5 -21.5t51 21.5t21 51.5t-21 51t-51 21t-51.5 -21t-21.5 -51zM53 583q0 31 11.5 57.5t31.5 46.5t46.5 31.5t57.5 11.5t57.5 -11.5t46.5 -31.5t31.5 -46.5t11.5 -57.5t-11.5 -57.5t-31.5 -46.5t-46.5 -31.5t-57.5 -11.5t-57.5 11.5
t-46.5 31.5t-31.5 46.5t-11.5 57.5z" />
    <glyph glyph-name="plusminus" unicode="&#xb1;" horiz-adv-x="584" 
d="M353 197v-197h-122v197h-191v110h191v197h122v-197h191v-110h-191zM40 -188v110h504v-110h-504z" />
    <glyph glyph-name="twosuperior" unicode="&#xb2;" horiz-adv-x="378" 
d="M341 449v-125h-324v61q43 31 83 63.5t71 65.5t49.5 66t18.5 63q0 41 -19 56t-45 15q-25 0 -38 -11.5t-19 -25.5q-7 -17 -8 -37h-93q0 35 13 63t35 48t50.5 31t60.5 11q33 0 62 -8.5t50 -27t33.5 -47t12.5 -68.5q0 -31 -17 -66t-42 -68t-53.5 -61.5t-51.5 -46.5h105v49h66
z" />
    <glyph glyph-name="threesuperior" unicode="&#xb3;" horiz-adv-x="393" 
d="M102 573l117 134h-112v-34h-66v110h309v-35l-119 -135q55 -8 92 -43.5t37 -98.5q0 -29 -11 -57t-32.5 -50.5t-54.5 -36t-78 -13.5q-63 0 -106.5 20.5t-68.5 55.5l60 47q18 -23 49.5 -35t60.5 -12q21 0 37 7.5t27 19.5t16.5 27.5t5.5 31.5q0 29 -20 52.5t-62 23.5
q-13 0 -25 -2.5t-21 -4.5q-11 -4 -21 -7z" />
    <glyph glyph-name="acute" unicode="&#xb4;" 
d="M120 593l116 150l139 -30l-141 -120h-114z" />
    <glyph glyph-name="mu" unicode="&#xb5;" horiz-adv-x="667" 
d="M29 504h208v-308q0 -42 23.5 -71.5t65.5 -29.5q51 0 82 31.5t31 76.5v202h-73v99h208v-405h69v-99h-188l-8 69q-30 -40 -71 -63t-89 -23q-14 0 -26 2t-24 5v-179h-135v594h-73v99z" />
    <glyph glyph-name="paragraph" unicode="&#xb6;" horiz-adv-x="644" 
d="M429 611h-74v-611h-123v275q-46 0 -85.5 17t-68 47t-45 70t-16.5 85t16.5 85t45 70t68 47t85.5 17h396v-102h-76v-611h-123v611z" />
    <glyph glyph-name="periodcentered" unicode="&#xb7;" horiz-adv-x="286" 
d="M62 336h162v-160h-162v160z" />
    <glyph glyph-name="cedilla" unicode="&#xb8;" 
d="M136 0h57l-38 -55q9 2 15 3t15 1q10 0 25 -3.5t29 -12t23.5 -23.5t9.5 -39q0 -45 -34.5 -72t-89.5 -27q-28 0 -53 5t-62 20l22 48q11 -5 33 -11t43 -6q20 0 34 8.5t14 31.5q0 17 -12 26.5t-27 9.5q-8 0 -19 -2.5t-21 -5.5l-21 20z" />
    <glyph glyph-name="onesuperior" unicode="&#xb9;" horiz-adv-x="308" 
d="M68 390h72v306l-92 -22v76l138 33h46v-393h72v-66h-236v66z" />
    <glyph glyph-name="ordmasculine" unicode="&#xba;" horiz-adv-x="407" 
d="M259 549q0 47 -21 71t-43 24q-23 0 -44 -24.5t-21 -70.5q0 -48 20.5 -71t44.5 -23q23 0 43.5 23t20.5 71zM361 549q0 -36 -12.5 -67.5t-35 -55t-53 -37t-65.5 -13.5q-36 0 -66.5 13.5t-53 37t-35 55t-12.5 67.5t12.5 67.5t35 55.5t53 37.5t66.5 13.5q35 0 65.5 -13.5
t53 -37.5t35 -55.5t12.5 -67.5z" />
    <glyph glyph-name="guillemotright" unicode="&#xbb;" horiz-adv-x="645" 
d="M301 77l112 173l-112 173l90 57l147 -223l-147 -229zM72 77l112 173l-112 173l90 57l147 -223l-147 -229z" />
    <glyph glyph-name="onequarter" unicode="&#xbc;" horiz-adv-x="870" 
d="M651 66h53v60h-198v47l191 286h96v-260h70v-73h-70v-60h49v-66h-191v66zM704 199v135l-88 -135h88zM45 320h72v305l-91 -21v76l138 33h47v-393h72v-66h-238v66zM272 -16h-92l428 729h91z" />
    <glyph glyph-name="onehalf" unicode="&#xbd;" horiz-adv-x="907" 
d="M277 -14h-92l428 729h91zM884 125v-125h-326v61q43 30 83 63t71.5 66t50 66t18.5 63q0 20 -5 33.5t-14 22t-20.5 12t-24.5 3.5q-25 0 -38.5 -12t-19.5 -25q-7 -17 -7 -37h-94q0 35 13 63.5t35 48.5t51.5 30.5t60.5 10.5q33 0 62.5 -8.5t51 -27t33.5 -47t12 -68.5
q0 -20 -7.5 -43t-21 -46t-30.5 -45t-35.5 -42.5t-37 -37t-33.5 -28.5h106v49h66zM45 320h72v305l-91 -21v76l138 33h47v-393h72v-66h-238v66z" />
    <glyph glyph-name="threequarters" unicode="&#xbe;" horiz-adv-x="971" 
d="M330 -16h-92l428 729h91zM688 66h53v60h-198v47l191 286h96v-260h70v-73h-70v-60h49v-66h-191v66zM741 199v135l-88 -135h88zM119 503l119 134h-114v-34h-66v110h311v-35l-120 -135q28 -4 51.5 -15t41 -29t27.5 -42.5t10 -55.5q0 -29 -11 -57t-33 -50.5t-55 -36
t-78 -13.5q-63 0 -107 21t-69 55l60 47q19 -23 50 -35t62 -12q20 0 36.5 7.5t27.5 20t16.5 28t5.5 30.5q0 14 -5 28t-15.5 24.5t-25.5 17t-37 6.5q-13 0 -25.5 -2.5t-21.5 -4.5q-11 -3 -21 -7z" />
    <glyph glyph-name="questiondown" unicode="&#xbf;" horiz-adv-x="590" 
d="M480 199h90v-110q-29 -26 -63 -46t-69.5 -33.5t-71 -20.5t-66.5 -7q-59 0 -104.5 14.5t-76 41.5t-46.5 64.5t-16 82.5q0 44 13 79.5t37 62t56.5 44t71.5 26.5l6 106h122l12 -186q-80 -3 -127 -36t-47 -87q0 -27 12.5 -44.5t33 -28.5t45.5 -15.5t50 -4.5q38 0 72 14.5
t66 38.5v45zM222 713h162v-160h-162v160z" />
    <glyph glyph-name="Aacute" unicode="&#xc1;" horiz-adv-x="696" 
d="M453 193h-210l-27 -91h68v-102h-271v102h62l167 509h-66v102h244l199 -611h76v-102h-186zM415 312l-67 230l-67 -230h134zM253 788l116 150l139 -30l-141 -120h-114z" />
    <glyph glyph-name="AE" unicode="&#xc6;" horiz-adv-x="981" 
d="M919 194v-194h-504v193h-172l-27 -91h68v-102h-271v102h62l167 509h-66v102h743v-195h-102v76h-258v-166h288v-119h-288v-190h258v75h102zM368 612l-87 -300h134v300h-47z" />
    <glyph glyph-name="Eacute" unicode="&#xc9;" horiz-adv-x="697" 
d="M55 713h580v-195h-102v76h-258v-166h288v-119h-288v-190h258v75h102v-194h-580v102h76v509h-76v102zM262 788l116 150l139 -30l-141 -120h-114z" />
    <glyph glyph-name="Iacute" unicode="&#xcd;" horiz-adv-x="406" 
d="M55 102h76v509h-76v102h296v-102h-76v-509h76v-102h-296v102zM148 788l116 150l139 -30l-141 -120h-114z" />
    <glyph glyph-name="Eth" unicode="&#xd0;" horiz-adv-x="813" 
d="M55 409h76v202h-76v102h367q74 0 139 -28t113.5 -76.5t76.5 -113.5t28 -139t-28 -138.5t-76.5 -113t-113.5 -76.5t-139 -28h-367v102h76v195h-76v112zM275 409h88v-112h-88v-178h127q49 0 92.5 18.5t75.5 51t51 75.5t19 92t-19 92.5t-51 75.5t-75.5 51t-92.5 19h-127
v-185z" />
    <glyph glyph-name="Ntilde" unicode="&#xd1;" horiz-adv-x="817" 
d="M55 713h222l286 -487v385h-74v102h294v-102h-76v-611h-144l-288 489v-387h74v-102h-294v102h76v509h-76v102zM574 881q-2 -11 -7.5 -27.5t-17.5 -31.5t-32.5 -26t-51.5 -11q-20 0 -38.5 5.5t-36.5 12.5t-36 12.5t-36 5.5q-14 0 -22.5 -5t-13.5 -12t-7.5 -14.5t-3.5 -11.5
l-64 24q3 15 9.5 32t20 32t35.5 25t56 10q18 0 34 -5.5t32.5 -12.5t33 -12.5t34.5 -5.5q25 0 34.5 13.5t12.5 26.5z" />
    <glyph glyph-name="Oacute" unicode="&#xd3;" horiz-adv-x="726" 
d="M687 356q0 -85 -25.5 -154t-69.5 -117.5t-103 -75t-126 -26.5q-73 0 -132.5 26.5t-102 75.5t-66 118t-23.5 155q0 84 23.5 152.5t66 117t101.5 75.5t131 27q68 0 127.5 -27t103.5 -76t69.5 -118t25.5 -153zM363 101q49 0 84 24t57 60.5t32.5 81.5t10.5 87q0 45 -10.5 91
t-33 82.5t-57 60t-81.5 23.5q-50 0 -85 -23t-57.5 -59.5t-33 -81.5t-10.5 -88q0 -44 10.5 -89.5t33 -83t57.5 -61.5t83 -24zM298 788l116 150l139 -30l-141 -120h-114z" />
    <glyph glyph-name="multiply" unicode="&#xd7;" horiz-adv-x="510" 
d="M255 360l98 144l94 -60l-124 -183l138 -204l-96 -57l-110 161l-109 -161l-97 56l139 205l-132 193l102 50z" />
    <glyph glyph-name="Oslash" unicode="&#xd8;" horiz-adv-x="726" 
d="M577 643q51 -50 80.5 -122.5t29.5 -164.5q0 -85 -25.5 -154t-69.5 -117.5t-103 -75t-126 -26.5q-43 0 -81 9.5t-71 26.5l-15 -27h-92l43 73q-52 50 -80 124t-28 169q0 84 23.5 152.5t66 117t101.5 75.5t131 27q82 0 153 -40l18 31h91zM179 359q0 -43 10 -87.5t31 -81.5
l231 394q-18 13 -39 20t-47 7q-50 0 -85 -23t-57.5 -59.5t-33 -81.5t-10.5 -88zM363 101q49 0 84 24t57 60.5t32.5 81.5t10.5 87q0 44 -10 87.5t-31 80.5l-231 -394q38 -27 88 -27z" />
    <glyph glyph-name="Uacute" unicode="&#xda;" horiz-adv-x="768" 
d="M21 713h291v-102h-72v-367q0 -30 11 -56.5t30.5 -46t46 -30.5t56.5 -11t56 11t45.5 30.5t31 46t11.5 56.5v367h-72v102h291v-102h-75v-340q0 -69 -22.5 -122.5t-61.5 -90t-91.5 -56t-112.5 -19.5t-112.5 19.5t-91.5 56t-61.5 90t-22.5 122.5v340h-75v102zM318 788
l116 150l139 -30l-141 -120h-114z" />
    <glyph glyph-name="Udieresis" unicode="&#xdc;" horiz-adv-x="768" 
d="M21 713h291v-102h-72v-367q0 -30 11 -56.5t30.5 -46t46 -30.5t56.5 -11t56 11t45.5 30.5t31 46t11.5 56.5v367h-72v102h291v-102h-75v-340q0 -69 -22.5 -122.5t-61.5 -90t-91.5 -56t-112.5 -19.5t-112.5 19.5t-91.5 56t-61.5 90t-22.5 122.5v340h-75v102zM540 798h-126
v120h126v-120zM353 798h-126v120h126v-120z" />
    <glyph glyph-name="Thorn" unicode="&#xde;" horiz-adv-x="676" 
d="M10 713h290v-102h-70v-29h170q49 0 92.5 -17t75.5 -47t51 -71.5t19 -90.5t-19 -90.5t-51 -71.5t-75.5 -47t-92.5 -17h-170v-28h70v-102h-290v102h76v509h-76v102zM230 463v-214h147q24 0 46 7.5t38.5 21t26 33.5t9.5 44q0 25 -9.5 45t-26 34t-38.5 21.5t-46 7.5h-147z
" />
    <glyph glyph-name="germandbls" unicode="&#xdf;" horiz-adv-x="661" 
d="M21 102h76v389q0 66 20 111.5t53 74t75 41.5t86 13q57 0 101.5 -15t75.5 -39.5t47.5 -57.5t16.5 -69q0 -19 -6 -40.5t-16.5 -41.5t-26 -37.5t-34.5 -29.5q29 -8 55 -26.5t45 -44t30 -55.5t11 -60q0 -56 -19 -99.5t-54 -73t-83.5 -45t-107.5 -15.5q-13 0 -25 1.5t-30 4.5
v114q4 -1 9.5 -1h19.5q40 0 68 9t45 24.5t25 35.5t8 42t-7 43t-24.5 38.5t-47 28.5t-74.5 13v84q43 5 69.5 38t26.5 81q0 29 -22.5 52t-70.5 23q-18 0 -35 -5.5t-30.5 -20.5t-21.5 -42t-8 -70v-475h-220v102z" />
    <glyph glyph-name="aacute" unicode="&#xe1;" horiz-adv-x="667" 
d="M454 56q-28 -32 -66 -52.5t-91 -20.5q-56 0 -103.5 21t-82.5 57.5t-55 85.5t-20 104t19.5 104t54.5 86t82.5 59t103.5 22q48 0 86 -20.5t60 -50.5v53h180v-99h-47v-306h71v-99h-187zM169 250q0 -32 10.5 -60.5t29 -49.5t43.5 -33.5t53 -12.5t53.5 10.5t45 31t30.5 49.5
t11 65t-11 65.5t-30.5 50.5t-45 32.5t-53.5 11.5t-53 -13t-43.5 -35.5t-29 -51.5t-10.5 -60zM239 593l116 150l139 -30l-141 -120h-114z" />
    <glyph glyph-name="ae" unicode="&#xe6;" horiz-adv-x="955" 
d="M70 359v105q49 29 103 44t109 15q60 0 113 -18t90 -53q34 33 79 51t96 18q53 0 98.5 -21t79 -57.5t52.5 -85.5t19 -105q0 -30 -6 -57h-361q5 -44 35.5 -72t77.5 -28q36 0 63 13.5t53 45.5l88 -68q-36 -49 -87 -76t-112 -27t-110 21.5t-83 62.5q-36 -31 -70 -48.5
t-64.5 -26.5t-56 -11t-45.5 -2q-88 0 -141.5 40.5t-53.5 113.5q0 50 19.5 86t51.5 59.5t74 34.5t87 11q34 0 72 -9t67 -23v41q0 23 -10 39t-26.5 26t-39 14.5t-46.5 4.5q-30 0 -60 -6t-56 -16v-36h-99zM276 80q17 0 37 4.5t40 12.5t38.5 18.5t32.5 21.5l-17 67q-21 9 -54 16
t-62 7q-25 0 -46.5 -4t-38 -14t-26 -25.5t-9.5 -37.5q0 -21 10 -34t25.5 -20t34 -9.5t35.5 -2.5zM779 280q0 28 -10 51.5t-27 40.5t-38.5 27t-43.5 10q-27 0 -49.5 -10t-39 -27t-26 -40.5t-9.5 -51.5h243z" />
    <glyph glyph-name="eacute" unicode="&#xe9;" horiz-adv-x="583" 
d="M503 84q-38 -50 -91 -75.5t-114 -25.5q-57 0 -104 19t-81.5 54.5t-53.5 85t-19 110.5t20 110.5t54.5 85t80.5 54.5t99 19t98.5 -21t79 -57.5t52.5 -85.5t19 -105q0 -30 -6 -57h-363q3 -26 15 -44.5t28.5 -30.5t37 -18t41.5 -6q32 0 63.5 12.5t57.5 41.5zM413 281
q0 28 -10 51.5t-27 40.5t-38.5 26.5t-43.5 9.5q-27 0 -49.5 -9.5t-39 -26.5t-26 -40.5t-9.5 -51.5h243zM234 593l116 150l139 -30l-141 -120h-114z" />
    <glyph glyph-name="iacute" unicode="&#xed;" horiz-adv-x="337" 
d="M32 504h204v-405h69v-99h-273v99h69v306h-69v99zM75 593l116 150l139 -30l-141 -120h-114z" />
    <glyph glyph-name="eth" unicode="&#xf0;" horiz-adv-x="607" 
d="M525 706l-62 -63q47 -52 70.5 -125.5t23.5 -160.5q0 -70 -13 -137.5t-45 -120t-86.5 -84.5t-137.5 -32q-66 0 -113 24t-77 61.5t-43.5 81.5t-13.5 85q0 57 21 103t55.5 79t79.5 51t92 18q36 0 72 -11t68 -35q0 35 -10.5 64t-28.5 52l-55 -56l-54 54l47 48q-28 11 -58 11
v119q43 0 79.5 -10t67.5 -29l67 68zM413 259q0 24 -9 44t-24.5 34.5t-36 23t-44.5 8.5q-5 0 -25.5 -3.5t-43.5 -17t-41.5 -40.5t-18.5 -75q0 -34 11 -58t28.5 -39.5t39.5 -23t43 -7.5q23 0 45 9.5t39 29t27 48.5t10 67z" />
    <glyph glyph-name="ntilde" unicode="&#xf1;" horiz-adv-x="662" 
d="M26 504h191l10 -83q26 45 70 72.5t98 27.5q36 0 68 -14.5t56 -39.5t38 -59t14 -72v-237h69v-99h-197v308q0 102 -100 102q-42 0 -72.5 -27.5t-36.5 -69.5v-214h69v-99h-273v99h69v306h-73v99zM486 686q-2 -11 -7.5 -27.5t-17.5 -31.5t-32.5 -26t-51.5 -11
q-20 0 -38.5 5.5t-36.5 12.5t-36 12.5t-36 5.5q-14 0 -22.5 -5t-13.5 -12t-7.5 -14.5t-3.5 -11.5l-64 24q3 15 9.5 32t20 32t35.5 25t56 10q18 0 34 -5.5t32.5 -12.5t33 -12.5t34.5 -5.5q25 0 34.5 13.5t12.5 26.5z" />
    <glyph glyph-name="oacute" unicode="&#xf3;" horiz-adv-x="608" 
d="M435 252q0 39 -12 69t-31 49.5t-42.5 29.5t-45.5 10q-23 0 -46.5 -10t-42 -30t-30.5 -49.5t-12 -68.5t11.5 -68.5t30 -49t42 -29.5t47.5 -10t47.5 10t42 29.5t30 49t11.5 68.5zM569 252q0 -56 -20 -105t-55.5 -85.5t-84 -57.5t-105.5 -21t-105.5 21t-84 57.5t-55.5 85.5
t-20 105t20 105t55.5 86t84 58t105.5 21t105.5 -21t84 -58t55.5 -86t20 -105zM235 593l116 150l139 -30l-141 -120h-114z" />
    <glyph glyph-name="divide" unicode="&#xf7;" horiz-adv-x="547" 
d="M208.519 506h132.001v-130h-132.001v130zM23 197v110h504v-110h-504zM208.519 130h132.001v-130h-132.001v130z" />
    <glyph glyph-name="oslash" unicode="&#xf8;" horiz-adv-x="608" 
d="M569 252q0 -56 -20 -105t-55.5 -85.5t-84 -57.5t-105.5 -21q-54 0 -99 18l-27 -47h-92l51 87q-46 37 -72 91.5t-26 119.5q0 56 20 105t55.5 86t84 58t105.5 21q28 0 53.5 -5.5t49.5 -15.5l24 41h91l-48 -82q45 -37 70 -91t25 -117zM173 252q0 -32 7.5 -57.5t20.5 -44.5
l147 251q-23 9 -44 9q-23 0 -46.5 -10t-42 -30t-30.5 -49.5t-12 -68.5zM435 252q0 29 -7 53t-19 43l-145 -247q19 -6 40 -6q24 0 47.5 10t42 29.5t30 49t11.5 68.5z" />
    <glyph glyph-name="uacute" unicode="&#xfa;" horiz-adv-x="667" 
d="M29 504h208v-308q0 -42 23.5 -71.5t65.5 -29.5q51 0 82 31.5t31 76.5v202h-73v99h208v-405h69v-99h-188l-8 69q-30 -40 -71 -63t-89 -23q-38 0 -72 14.5t-59 39.5t-39.5 59t-14.5 72v237h-73v99zM239 593l116 150l139 -30l-141 -120h-114z" />
    <glyph glyph-name="udieresis" unicode="&#xfc;" horiz-adv-x="667" 
d="M29 504h208v-308q0 -42 23.5 -71.5t65.5 -29.5q51 0 82 31.5t31 76.5v202h-73v99h208v-405h69v-99h-188l-8 69q-30 -40 -71 -63t-89 -23q-38 0 -72 14.5t-59 39.5t-39.5 59t-14.5 72v237h-73v99zM460 603h-126v120h126v-120zM273 603h-126v120h126v-120z" />
    <glyph glyph-name="thorn" unicode="&#xfe;" horiz-adv-x="663" 
d="M55 713h208v-262q29 38 67 59.5t83 21.5q44 0 82.5 -21.5t67 -59t45 -87t16.5 -106.5t-16.5 -107t-45 -87.5t-67 -59t-82.5 -21.5q-45 0 -83.5 22t-67.5 60v-155h76v-99h-279v99h69v704h-73v99zM262 258q0 -35 9 -66t25 -54t37 -36.5t45 -13.5t45 13.5t37 36.5t25 54
t9 66t-9 66t-25 54t-37 36.5t-45 13.5t-45 -13.5t-37 -36.5t-25 -54t-9 -66z" />
    <glyph glyph-name="dotlessi" unicode="&#x131;" horiz-adv-x="337" 
d="M32 504h204v-405h69v-99h-273v99h69v306h-69v99z" />
    <glyph glyph-name="OE" unicode="&#x152;" horiz-adv-x="1114" 
d="M1052 194v-194h-504v44q-40 -29 -86.5 -45t-98.5 -16q-73 0 -132.5 26.5t-102 75.5t-66 118t-23.5 155q0 84 23.5 152.5t66 117t101.5 75.5t131 27q53 0 100 -16t87 -46v45h504v-195h-102v76h-258v-166h288v-119h-288v-190h258v75h102zM363 101q49 0 84 24t57 60.5
t32.5 81.5t10.5 87q0 45 -10.5 91t-33 82.5t-57 60t-81.5 23.5q-50 0 -85 -23t-57.5 -59.5t-33 -81.5t-10.5 -88q0 -44 10.5 -89.5t33 -83t57.5 -61.5t83 -24z" />
    <glyph glyph-name="oe" unicode="&#x153;" horiz-adv-x="978" 
d="M888 86q-36 -49 -87 -76t-112 -27t-109.5 21.5t-82.5 61.5q-36 -38 -85.5 -60.5t-107.5 -22.5q-57 0 -105.5 21t-84 57.5t-55.5 85.5t-20 105t20 105t55.5 86t84 58t105.5 21q60 0 109.5 -23t85.5 -63q35 41 84 63t106 22q53 0 98.5 -21t79 -57.5t52.5 -85.5t19 -105
q0 -30 -6 -57h-361q5 -44 35.5 -72t77.5 -28q36 0 63 13.5t53 45.5zM808 280q0 28 -10 51.5t-27 40.5t-38.5 27t-43.5 10q-27 0 -49.5 -10t-39 -27t-26 -40.5t-9.5 -51.5h243zM435 252q0 39 -12 69t-31 49.5t-42.5 29.5t-45.5 10q-23 0 -46.5 -10t-42 -30t-30.5 -49.5
t-12 -68.5t11.5 -68.5t30 -49t42 -29.5t47.5 -10t47.5 10t42 29.5t30 49t11.5 68.5z" />
    <glyph glyph-name="florin" unicode="&#x192;" horiz-adv-x="488" 
d="M85 504h68l10 74q4 28 18 52.5t35 43t47 29t54 10.5h135l-16 -112h-92q-30 0 -38 -9.5t-11 -32.5l-8 -55h135l-14 -98h-134l-79 -557q-4 -28 -18 -52.5t-35 -43t-47 -29t-54 -10.5h-111l16 112h68q30 0 38 9.5t11 32.5l76 539h-67z" />
    <glyph glyph-name="circumflex" unicode="&#x2c6;" 
d="M343 593h-101l-76 82l-75 -82h-101l114 146h125z" />
    <glyph glyph-name="caron" unicode="&#x2c7;" 
d="M231 593h-128l-110 140h94l81 -69l81 69h92z" />
    <glyph glyph-name="breve" unicode="&#x2d8;" 
d="M166 589q-72 0 -117 39t-51 107h91q5 -24 24 -42.5t53 -18.5t53 18.5t24 42.5h91q-6 -68 -51 -107t-117 -39z" />
    <glyph glyph-name="dotaccent" unicode="&#x2d9;" 
d="M229 608h-126v120h126v-120z" />
    <glyph glyph-name="ring" unicode="&#x2da;" 
d="M219 691q0 22 -15 37t-37 15t-37 -15t-15 -37t15 -37t37 -15t37 15t15 37zM275 691q0 -24 -10 -43t-25.5 -32.5t-34.5 -21t-38 -7.5t-38 7.5t-34.5 21t-25.5 32.5t-10 43t10 43t25.5 32.5t34.5 21t38 7.5t38 -7.5t34.5 -21t25.5 -32.5t10 -43z" />
    <glyph glyph-name="ogonek" unicode="&#x2db;" 
d="M306 -204q-20 -12 -46 -18t-52 -6q-28 0 -52.5 5.5t-43 17t-29 29t-10.5 41.5q0 48 30 82.5t79 52.5h84q-25 -15 -43.5 -32t-31 -33.5t-18.5 -32t-6 -26.5q0 -27 15 -36.5t35 -9.5q18 0 37.5 5t33.5 10z" />
    <glyph glyph-name="tilde" unicode="&#x2dc;" 
d="M350 686q-2 -11 -7.5 -27.5t-17.5 -31.5t-32.5 -26t-51.5 -11q-20 0 -38.5 5.5t-36.5 12.5t-36 12.5t-36 5.5q-14 0 -22.5 -5t-13.5 -12t-7.5 -14.5t-3.5 -11.5l-64 24q3 15 9.5 32t20 32t35.5 25t56 10q18 0 34 -5.5t32.5 -12.5t33 -12.5t34.5 -5.5q25 0 34.5 13.5
t12.5 26.5z" />
    <glyph glyph-name="hungarumlaut" unicode="&#x2dd;" horiz-adv-x="450" 
d="M30 593l116 150l139 -30l-141 -120h-114zM238 593l116 150l139 -30l-141 -120h-114z" />
    <glyph glyph-name="endash" unicode="&#x2013;" horiz-adv-x="612" 
d="M0 308h613v-112h-613v112z" />
    <glyph glyph-name="emdash" unicode="&#x2014;" horiz-adv-x="1046" 
d="M0 308h1048v-112h-1048v112z" />
    <glyph glyph-name="quoteleft" unicode="&#x2018;" horiz-adv-x="232" 
d="M53 543q0 46 11.5 78.5t31.5 54.5t47.5 35t59.5 20v-61q-17 -5 -30 -10t-22.5 -16t-15.5 -30t-8 -51h76v-160h-150v140z" />
    <glyph glyph-name="quoteright" unicode="&#x2019;" horiz-adv-x="231" 
d="M203 573q0 -46 -11.5 -78.5t-31.5 -54.5t-47.5 -35t-59.5 -20v61q16 5 29.5 10t23 16t15.5 30t8 51h-76v160h150v-140z" />
    <glyph glyph-name="quotesinglbase" unicode="&#x201a;" horiz-adv-x="278" 
d="M203 20q0 -46 -11.5 -78.5t-31.5 -54.5t-47.5 -35t-59.5 -20v61q16 5 29.5 10t23 16t15.5 30t8 51h-76v160h150v-140z" />
    <glyph glyph-name="quotedblleft" unicode="&#x201c;" horiz-adv-x="451" 
d="M53 542q0 46 11.5 78.5t31.5 54.5t47.5 35t59.5 20v-61q-17 -5 -30 -10t-22.5 -16t-15.5 -30t-8 -51h76v-160h-150v140zM264 542q0 46 11.5 78.5t31.5 54.5t47.5 35t59.5 20v-61q-17 -5 -30 -10t-22.5 -16t-15.5 -30t-8 -51h76v-160h-150v140z" />
    <glyph glyph-name="quotedblright" unicode="&#x201d;" horiz-adv-x="435" 
d="M402 573q0 -46 -11.5 -78.5t-31.5 -54.5t-47.5 -35t-59.5 -20v61q16 5 29.5 10t23 16t15.5 30t8 51h-76v160h150v-140zM191 573q0 -46 -11.5 -78.5t-31.5 -54.5t-47.5 -35t-59.5 -20v61q16 5 29.5 10t23 16t15.5 30t8 51h-76v160h150v-140z" />
    <glyph glyph-name="quotedblbase" unicode="&#x201e;" horiz-adv-x="448" 
d="M203 20q0 -46 -11.5 -78.5t-31.5 -54.5t-47.5 -35t-59.5 -20v61q16 5 29.5 10t23 16t15.5 30t8 51h-76v160h150v-140zM414 20q0 -46 -11.5 -78.5t-31.5 -54.5t-47.5 -35t-59.5 -20v61q16 5 29.5 10t23 16t15.5 30t8 51h-76v160h150v-140z" />
    <glyph glyph-name="dagger" unicode="&#x2020;" horiz-adv-x="357" 
d="M24 563l98 -12v162h112v-162l98 12v-112l-98 12v-463h-112v463l-98 -12v112z" />
    <glyph glyph-name="daggerdbl" unicode="&#x2021;" horiz-adv-x="362" 
d="M24 563l98 -12v162h112v-162l98 12v-112l-98 12v-223l98 12v-112l-98 12v-152h-112v152l-98 -12v112l98 -12v223l-98 -12v112z" />
    <glyph glyph-name="bullet" unicode="&#x2022;" horiz-adv-x="350" 
d="M28 359q0 31 11.5 57.5t31.5 46.5t46.5 31.5t57.5 11.5t57.5 -11.5t46.5 -31.5t31.5 -46.5t11.5 -57.5t-11.5 -57.5t-31.5 -46.5t-46.5 -31.5t-57.5 -11.5t-57.5 11.5t-46.5 31.5t-31.5 46.5t-11.5 57.5z" />
    <glyph glyph-name="ellipsis" unicode="&#x2026;" horiz-adv-x="834" 
d="M62 160h162v-160h-162v160zM340 160h162v-160h-162v160zM618 160h162v-160h-162v160z" />
    <glyph glyph-name="perthousand" unicode="&#x2030;" horiz-adv-x="1147" 
d="M497 177q0 40 14.5 75.5t39 61.5t57.5 41.5t71 15.5t71 -16t59 -44q25 28 58.5 44t72.5 16q37 0 70 -15.5t58 -42t39.5 -61.5t14.5 -75t-14.5 -75.5t-39.5 -61.5t-58 -41.5t-70 -15.5q-38 0 -72 15.5t-59 43.5q-26 -28 -59 -43.5t-71 -15.5t-71 15t-57.5 41.5t-39 61.5
t-14.5 76zM28 536q0 40 14.5 75.5t39 61.5t57.5 41.5t71 15.5q37 0 70 -15.5t58 -42t39.5 -61.5t14.5 -75t-14.5 -75.5t-39.5 -61.5t-58 -41.5t-70 -15.5q-38 0 -71 15t-57.5 41.5t-39 61.5t-14.5 76zM131 536q0 -18 6.5 -34.5t17 -29t25 -20t30.5 -7.5t30.5 7.5t25 20
t17 29t6.5 34.5t-6.5 34.5t-17 29t-25 20t-30.5 7.5t-30.5 -7.5t-25 -20t-17 -29t-6.5 -34.5zM600 177q0 -18 6.5 -34.5t17 -29t25 -20t30.5 -7.5t30.5 7.5t25 20t17 29t6.5 34.5t-6.5 34.5t-17 29t-25 20t-30.5 7.5t-30.5 -7.5t-25 -20t-17 -29t-6.5 -34.5zM861 177
q0 -18 6.5 -34.5t17 -29t25 -20t30.5 -7.5t30.5 7.5t25 20t17 29t6.5 34.5t-6.5 34.5t-17 29t-25 20t-30.5 7.5t-30.5 -7.5t-25 -20t-17 -29t-6.5 -34.5zM273 -16h-92l428 729h91z" />
    <glyph glyph-name="guilsinglleft" unicode="&#x2039;" horiz-adv-x="404" 
d="M245 28l-147 229l147 223l90 -57l-112 -173l112 -173z" />
    <glyph glyph-name="guilsinglright" unicode="&#x203a;" horiz-adv-x="437" 
d="M72 77l112 173l-112 173l90 57l147 -223l-147 -229z" />
    <glyph glyph-name="fraction" unicode="&#x2044;" horiz-adv-x="167" 
d="M-85 -16h-92l428 729h91z" />
    <glyph glyph-name="Euro" unicode="&#x20ac;" horiz-adv-x="556" 
d="M516 206v-85q-35 -63 -85.5 -100.5t-109.5 -37.5q-42 0 -79.5 18.5t-69 52.5t-55 80.5t-35.5 102.5h-82l27 86h43q-1 8 -1 16.5v16.5v16.5t1 16.5h-70l27 86h55q12 56 35.5 102.5t55 80.5t69 52.5t79.5 18.5q60 0 111.5 -39t86.5 -105v-79h-96v40q-17 31 -39 48t-46 17
q-41 0 -75 -37t-51 -99h211l-27 -86h-196q-1 -8 -1 -17v-17v-16t1 -16h178l-28 -86h-136q17 -63 50 -100.5t74 -37.5q23 0 44 16t38 45v46h96z" />
    <glyph glyph-name="trademark" unicode="&#x2122;" horiz-adv-x="942" 
d="M103.174 426.369h44.9961v291.194h-67.4932v-44.9814h-60.3877v115.413h341.016v-115.413h-60.3887v44.9814h-67.4922v-291.194h44.9941v-60.3691h-175.244v60.3691zM736.947 426.382h44.9902v169.898l-88.7969 -201.865h-75.7734l-90.5723 206.009v-174.042h44.9902
v-60.3818h-175.227v60.3818h44.9912v301.318h-44.9912v60.3818h124.908l133.787 -317.302l133.788 317.302h123.132v-60.3818h-44.9912v-301.318h44.9912v-60.3818h-175.227v60.3818z" />
    <glyph glyph-name="minus" unicode="&#x2212;" horiz-adv-x="584" 
d="M40 197v110h504v-110h-504z" />
    </font>
</defs>
</svg>
